<svg xmlns="http://www.w3.org/2000/svg" width="1126" height="300" viewBox="0 0 1126 300"><rect x="424.5" y="239.2" width="84.9" height="29.9" fill="#ff605b"/><rect x="509.4" y="239.2" width="84.9" height="29.9" fill="#ff605b"/><rect x="594.3" y="239.2" width="84.9" height="29.9" fill="#ff605b"/><rect x="679.2" y="239.2" width="84.9" height="29.9" fill="#ff605b"/><rect x="764.1" y="239.2" width="84.9" height="29.9" fill="#ff605b"/><rect y="269.1" width="84.9" height="29.9" fill="#ff605b"/><rect x="84.9" y="269.1" width="84.9" height="29.9" fill="#ff605b"/><rect x="169.8" y="269.1" width="84.9" height="29.9" fill="#ff605b"/><rect x="254.7" y="269.1" width="84.9" height="29.9" fill="#ff605b"/><rect x="339.6" y="269.1" width="84.9" height="29.9" fill="#ff605b"/><rect x="424.5" y="269.1" width="84.9" height="29.9" fill="#ff605b"/><rect x="509.4" y="269.1" width="84.9" height="29.9" fill="#ff605b"/><rect x="594.3" y="269.1" width="84.9" height="29.9" fill="#ff605b"/><rect x="679.2" y="269.1" width="84.9" height="29.9" fill="#ff605b"/><rect x="764.1" y="269.1" width="84.9" height="29.9" fill="#ff605b"/><rect width="84.9" height="29.9" fill="#d3d3d3"/><rect x="84.9" width="84.9" height="29.9" fill="#d3d3d3"/><rect x="169.8" width="84.9" height="29.9" fill="#d3d3d3"/><rect x="254.7" width="84.9" height="29.9" fill="#d3d3d3"/><rect x="339.6" width="84.9" height="29.9" fill="#d3d3d3"/><rect x="424.5" width="84.9" height="29.9" fill="#d3d3d3"/><rect x="509.4" width="84.9" height="29.9" fill="#d3d3d3"/><rect x="594.3" width="84.9" height="29.9" fill="#d3d3d3"/><rect x="679.2" width="84.9" height="29.9" fill="#d3d3d3"/><rect x="764.1" width="84.9" height="29.9" fill="#d3d3d3"/><rect y="29.9" width="84.9" height="29.9" fill="#d3d3d3"/><rect x="84.9" y="29.9" width="84.9" height="29.9" fill="#d3d3d3"/><rect x="169.8" y="29.9" width="84.9" height="29.9" fill="#d3d3d3"/><rect x="254.7" y="29.9" width="84.9" height="29.9" fill="#d3d3d3"/><rect x="339.6" y="29.9" width="84.9" height="29.9" fill="#d3d3d3"/><rect x="424.5" y="29.9" width="84.9" height="29.9" fill="#d3d3d3"/><rect x="509.4" y="29.9" width="84.9" height="29.9" fill="#d3d3d3"/><rect x="594.3" y="29.9" width="84.9" height="29.9" fill="#d3d3d3"/><rect x="679.2" y="29.9" width="84.9" height="29.9" fill="#d3d3d3"/><rect x="764.1" y="29.9" width="84.9" height="29.9" fill="#d3d3d3"/><rect y="59.8" width="84.9" height="29.9" fill="#d3d3d3"/><rect x="84.9" y="59.8" width="84.9" height="29.9" fill="#d3d3d3"/><rect x="169.8" y="59.8" width="84.9" height="29.9" fill="#d3d3d3"/><rect x="254.7" y="59.8" width="84.9" height="29.9" fill="#d3d3d3"/><rect x="339.6" y="59.8" width="84.9" height="29.9" fill="#d3d3d3"/><rect x="424.5" y="59.8" width="84.9" height="29.9" fill="#d3d3d3"/><rect x="509.4" y="59.8" width="84.9" height="29.9" fill="#d3d3d3"/><rect x="594.3" y="59.8" width="84.9" height="29.9" fill="#d3d3d3"/><rect x="679.2" y="59.8" width="84.9" height="29.9" fill="#d3d3d3"/><rect x="764.1" y="59.8" width="84.9" height="29.9" fill="#d3d3d3"/><rect y="89.7" width="84.9" height="29.9" fill="#d3d3d3"/><rect x="84.9" y="89.7" width="84.9" height="29.9" fill="#d3d3d3"/><rect x="169.8" y="89.7" width="84.9" height="29.9" fill="#d3d3d3"/><rect x="254.7" y="89.7" width="84.9" height="29.9" fill="#d3d3d3"/><rect x="339.6" y="89.7" width="84.9" height="29.9" fill="#d3d3d3"/><rect x="424.5" y="89.7" width="84.9" height="29.9" fill="#d3d3d3"/><rect x="509.4" y="89.7" width="84.9" height="29.9" fill="#d3d3d3"/><rect x="594.3" y="89.7" width="84.9" height="29.9" fill="#d3d3d3"/><rect x="679.2" y="89.7" width="84.9" height="29.9" fill="#d3d3d3"/><rect x="764.1" y="89.7" width="84.9" height="29.9" fill="#d3d3d3"/><rect y="119.6" width="84.9" height="29.9" fill="#d3d3d3"/><rect x="84.9" y="119.6" width="84.9" height="29.9" fill="#d3d3d3"/><rect x="169.8" y="119.6" width="84.9" height="29.9" fill="#d3d3d3"/><rect x="254.7" y="119.6" width="84.9" height="29.9" fill="#d3d3d3"/><rect x="339.6" y="119.6" width="84.9" height="29.9" fill="#d3d3d3"/><rect x="424.5" y="119.6" width="84.9" height="29.9" fill="#d3d3d3"/><rect x="509.4" y="119.6" width="84.9" height="29.9" fill="#d3d3d3"/><rect x="594.3" y="119.6" width="84.9" height="29.9" fill="#d3d3d3"/><rect x="679.2" y="119.6" width="84.9" height="29.9" fill="#d3d3d3"/><rect x="764.1" y="119.6" width="84.9" height="29.9" fill="#d3d3d3"/><rect y="149.5" width="84.9" height="29.9" fill="#d3d3d3"/><rect x="84.9" y="149.5" width="84.9" height="29.9" fill="#d3d3d3"/><rect x="169.8" y="149.5" width="84.9" height="29.9" fill="#d3d3d3"/><rect x="254.7" y="149.5" width="84.9" height="29.9" fill="#d3d3d3"/><rect x="339.6" y="149.5" width="84.9" height="29.9" fill="#d3d3d3"/><rect x="424.5" y="149.5" width="84.9" height="29.9" fill="#d3d3d3"/><rect x="509.4" y="149.5" width="84.9" height="29.9" fill="#d3d3d3"/><rect x="594.3" y="149.5" width="84.9" height="29.9" fill="#d3d3d3"/><rect x="679.2" y="149.5" width="84.9" height="29.9" fill="#d3d3d3"/><rect x="764.1" y="149.5" width="84.9" height="29.9" fill="#d3d3d3"/><rect y="179.4" width="84.9" height="29.9" fill="#d3d3d3"/><rect x="84.9" y="179.4" width="84.9" height="29.9" fill="#d3d3d3"/><rect x="169.8" y="179.4" width="84.9" height="29.9" fill="#d3d3d3"/><rect x="254.7" y="179.4" width="84.9" height="29.9" fill="#d3d3d3"/><rect x="339.6" y="179.4" width="84.9" height="29.9" fill="#d3d3d3"/><rect x="424.5" y="179.4" width="84.9" height="29.9" fill="#d3d3d3"/><rect x="509.4" y="179.4" width="84.9" height="29.9" fill="#d3d3d3"/><rect x="594.3" y="179.4" width="84.9" height="29.9" fill="#d3d3d3"/><rect x="679.2" y="179.4" width="84.9" height="29.9" fill="#d3d3d3"/><rect x="764.1" y="179.4" width="84.9" height="29.9" fill="#d3d3d3"/><rect y="209.3" width="84.9" height="29.9" fill="#d3d3d3"/><rect x="84.9" y="209.3" width="84.9" height="29.9" fill="#d3d3d3"/><rect x="169.8" y="209.3" width="84.9" height="29.9" fill="#d3d3d3"/><rect x="254.7" y="209.3" width="84.9" height="29.9" fill="#d3d3d3"/><rect x="339.6" y="209.3" width="84.9" height="29.9" fill="#d3d3d3"/><rect x="424.5" y="209.3" width="84.9" height="29.9" fill="#d3d3d3"/><rect x="509.4" y="209.3" width="84.9" height="29.9" fill="#d3d3d3"/><rect x="594.3" y="209.3" width="84.9" height="29.9" fill="#d3d3d3"/><rect x="679.2" y="209.3" width="84.9" height="29.9" fill="#d3d3d3"/><rect x="764.1" y="209.3" width="84.9" height="29.9" fill="#d3d3d3"/><rect y="239.2" width="84.9" height="29.9" fill="#d3d3d3"/><rect x="84.9" y="239.2" width="84.9" height="29.9" fill="#d3d3d3"/><rect x="169.8" y="239.2" width="84.9" height="29.9" fill="#d3d3d3"/><rect x="254.7" y="239.2" width="84.9" height="29.9" fill="#d3d3d3"/><rect x="339.6" y="239.2" width="84.9" height="29.9" fill="#d3d3d3"/><text transform="translate(885 193)" font-size="30" fill="#fff" font-family="ArialMT, Arial">Schools with<tspan x="0" y="36">limited internet</tspan><tspan font-size="50" font-family="Arial-BoldMT, Arial" font-weight="700"><tspan x="0" y="96">15%</tspan></tspan></text><path d="M508.4,240.2v27.9H425.5V240.2h82.9m1-1H424.5v29.9h84.9V239.2Z" fill="#fff"/><path d="M593.3,240.2v27.9H510.4V240.2h82.9m1-1H509.4v29.9h84.9V239.2Z" fill="#fff"/><path d="M678.2,240.2v27.9H595.3V240.2h82.9m1-1H594.3v29.9h84.9V239.2Z" fill="#fff"/><path d="M763.1,240.2v27.9H680.2V240.2h82.9m1-1H679.2v29.9h84.9V239.2Z" fill="#fff"/><path d="M848,240.2v27.9H765.1V240.2H848m1-1H764.1v29.9H849V239.2Z" fill="#fff"/><path d="M83.9,270.1V298H1V270.1H83.9m1-1H0V299H84.9V269.1Z" fill="#fff"/><path d="M168.8,270.1V298H85.9V270.1h82.9m1-1H84.9V299h84.9V269.1Z" fill="#fff"/><path d="M253.7,270.1V298H170.8V270.1h82.9m1-1H169.8V299h84.9V269.1Z" fill="#fff"/><path d="M338.6,270.1V298H255.7V270.1h82.9m1-1H254.7V299h84.9V269.1Z" fill="#fff"/><path d="M423.5,270.1V298H340.6V270.1h82.9m1-1H339.6V299h84.9V269.1Z" fill="#fff"/><path d="M508.4,270.1V298H425.5V270.1h82.9m1-1H424.5V299h84.9V269.1Z" fill="#fff"/><path d="M593.3,270.1V298H510.4V270.1h82.9m1-1H509.4V299h84.9V269.1Z" fill="#fff"/><path d="M678.2,270.1V298H595.3V270.1h82.9m1-1H594.3V299h84.9V269.1Z" fill="#fff"/><path d="M763.1,270.1V298H680.2V270.1h82.9m1-1H679.2V299h84.9V269.1Z" fill="#fff"/><path d="M848,270.1V298H765.1V270.1H848m1-1H764.1V299H849V269.1Z" fill="#fff"/><path d="M83.9,1V28.9H1V1H83.9m1-1H0V29.9H84.9V0Z" fill="#fff"/><path d="M168.8,1V28.9H85.9V1h82.9m1-1H84.9V29.9h84.9V0Z" fill="#fff"/><path d="M253.7,1V28.9H170.8V1h82.9m1-1H169.8V29.9h84.9V0Z" fill="#fff"/><path d="M338.6,1V28.9H255.7V1h82.9m1-1H254.7V29.9h84.9V0Z" fill="#fff"/><path d="M423.5,1V28.9H340.6V1h82.9m1-1H339.6V29.9h84.9V0Z" fill="#fff"/><path d="M508.4,1V28.9H425.5V1h82.9m1-1H424.5V29.9h84.9V0Z" fill="#fff"/><path d="M593.3,1V28.9H510.4V1h82.9m1-1H509.4V29.9h84.9V0Z" fill="#fff"/><path d="M678.2,1V28.9H595.3V1h82.9m1-1H594.3V29.9h84.9V0Z" fill="#fff"/><path d="M763.1,1V28.9H680.2V1h82.9m1-1H679.2V29.9h84.9V0Z" fill="#fff"/><path d="M848,1V28.9H765.1V1H848m1-1H764.1V29.9H849V0Z" fill="#fff"/><path d="M83.9,30.9V58.8H1V30.9H83.9m1-1H0V59.8H84.9V29.9Z" fill="#fff"/><path d="M168.8,30.9V58.8H85.9V30.9h82.9m1-1H84.9V59.8h84.9V29.9Z" fill="#fff"/><path d="M253.7,30.9V58.8H170.8V30.9h82.9m1-1H169.8V59.8h84.9V29.9Z" fill="#fff"/><path d="M338.6,30.9V58.8H255.7V30.9h82.9m1-1H254.7V59.8h84.9V29.9Z" fill="#fff"/><path d="M423.5,30.9V58.8H340.6V30.9h82.9m1-1H339.6V59.8h84.9V29.9Z" fill="#fff"/><path d="M508.4,30.9V58.8H425.5V30.9h82.9m1-1H424.5V59.8h84.9V29.9Z" fill="#fff"/><path d="M593.3,30.9V58.8H510.4V30.9h82.9m1-1H509.4V59.8h84.9V29.9Z" fill="#fff"/><path d="M678.2,30.9V58.8H595.3V30.9h82.9m1-1H594.3V59.8h84.9V29.9Z" fill="#fff"/><path d="M763.1,30.9V58.8H680.2V30.9h82.9m1-1H679.2V59.8h84.9V29.9Z" fill="#fff"/><path d="M848,30.9V58.8H765.1V30.9H848m1-1H764.1V59.8H849V29.9Z" fill="#fff"/><path d="M83.9,60.8V88.7H1V60.8H83.9m1-1H0V89.7H84.9V59.8Z" fill="#fff"/><path d="M168.8,60.8V88.7H85.9V60.8h82.9m1-1H84.9V89.7h84.9V59.8Z" fill="#fff"/><path d="M253.7,60.8V88.7H170.8V60.8h82.9m1-1H169.8V89.7h84.9V59.8Z" fill="#fff"/><path d="M338.6,60.8V88.7H255.7V60.8h82.9m1-1H254.7V89.7h84.9V59.8Z" fill="#fff"/><path d="M423.5,60.8V88.7H340.6V60.8h82.9m1-1H339.6V89.7h84.9V59.8Z" fill="#fff"/><path d="M508.4,60.8V88.7H425.5V60.8h82.9m1-1H424.5V89.7h84.9V59.8Z" fill="#fff"/><path d="M593.3,60.8V88.7H510.4V60.8h82.9m1-1H509.4V89.7h84.9V59.8Z" fill="#fff"/><path d="M678.2,60.8V88.7H595.3V60.8h82.9m1-1H594.3V89.7h84.9V59.8Z" fill="#fff"/><path d="M763.1,60.8V88.7H680.2V60.8h82.9m1-1H679.2V89.7h84.9V59.8Z" fill="#fff"/><path d="M848,60.8V88.7H765.1V60.8H848m1-1H764.1V89.7H849V59.8Z" fill="#fff"/><path d="M83.9,90.7v27.9H1V90.7H83.9m1-1H0v29.9H84.9V89.7Z" fill="#fff"/><path d="M168.8,90.7v27.9H85.9V90.7h82.9m1-1H84.9v29.9h84.9V89.7Z" fill="#fff"/><path d="M253.7,90.7v27.9H170.8V90.7h82.9m1-1H169.8v29.9h84.9V89.7Z" fill="#fff"/><path d="M338.6,90.7v27.9H255.7V90.7h82.9m1-1H254.7v29.9h84.9V89.7Z" fill="#fff"/><path d="M423.5,90.7v27.9H340.6V90.7h82.9m1-1H339.6v29.9h84.9V89.7Z" fill="#fff"/><path d="M508.4,90.7v27.9H425.5V90.7h82.9m1-1H424.5v29.9h84.9V89.7Z" fill="#fff"/><path d="M593.3,90.7v27.9H510.4V90.7h82.9m1-1H509.4v29.9h84.9V89.7Z" fill="#fff"/><path d="M678.2,90.7v27.9H595.3V90.7h82.9m1-1H594.3v29.9h84.9V89.7Z" fill="#fff"/><path d="M763.1,90.7v27.9H680.2V90.7h82.9m1-1H679.2v29.9h84.9V89.7Z" fill="#fff"/><path d="M848,90.7v27.9H765.1V90.7H848m1-1H764.1v29.9H849V89.7Z" fill="#fff"/><path d="M83.9,120.6v27.9H1V120.6H83.9m1-1H0v29.9H84.9V119.6Z" fill="#fff"/><path d="M168.8,120.6v27.9H85.9V120.6h82.9m1-1H84.9v29.9h84.9V119.6Z" fill="#fff"/><path d="M253.7,120.6v27.9H170.8V120.6h82.9m1-1H169.8v29.9h84.9V119.6Z" fill="#fff"/><path d="M338.6,120.6v27.9H255.7V120.6h82.9m1-1H254.7v29.9h84.9V119.6Z" fill="#fff"/><path d="M423.5,120.6v27.9H340.6V120.6h82.9m1-1H339.6v29.9h84.9V119.6Z" fill="#fff"/><path d="M508.4,120.6v27.9H425.5V120.6h82.9m1-1H424.5v29.9h84.9V119.6Z" fill="#fff"/><path d="M593.3,120.6v27.9H510.4V120.6h82.9m1-1H509.4v29.9h84.9V119.6Z" fill="#fff"/><path d="M678.2,120.6v27.9H595.3V120.6h82.9m1-1H594.3v29.9h84.9V119.6Z" fill="#fff"/><path d="M763.1,120.6v27.9H680.2V120.6h82.9m1-1H679.2v29.9h84.9V119.6Z" fill="#fff"/><path d="M848,120.6v27.9H765.1V120.6H848m1-1H764.1v29.9H849V119.6Z" fill="#fff"/><path d="M83.9,150.5v27.9H1V150.5H83.9m1-1H0v29.9H84.9V149.5Z" fill="#fff"/><path d="M168.8,150.5v27.9H85.9V150.5h82.9m1-1H84.9v29.9h84.9V149.5Z" fill="#fff"/><path d="M253.7,150.5v27.9H170.8V150.5h82.9m1-1H169.8v29.9h84.9V149.5Z" fill="#fff"/><path d="M338.6,150.5v27.9H255.7V150.5h82.9m1-1H254.7v29.9h84.9V149.5Z" fill="#fff"/><path d="M423.5,150.5v27.9H340.6V150.5h82.9m1-1H339.6v29.9h84.9V149.5Z" fill="#fff"/><path d="M508.4,150.5v27.9H425.5V150.5h82.9m1-1H424.5v29.9h84.9V149.5Z" fill="#fff"/><path d="M593.3,150.5v27.9H510.4V150.5h82.9m1-1H509.4v29.9h84.9V149.5Z" fill="#fff"/><path d="M678.2,150.5v27.9H595.3V150.5h82.9m1-1H594.3v29.9h84.9V149.5Z" fill="#fff"/><path d="M763.1,150.5v27.9H680.2V150.5h82.9m1-1H679.2v29.9h84.9V149.5Z" fill="#fff"/><path d="M848,150.5v27.9H765.1V150.5H848m1-1H764.1v29.9H849V149.5Z" fill="#fff"/><path d="M83.9,180.4v27.9H1V180.4H83.9m1-1H0v29.9H84.9V179.4Z" fill="#fff"/><path d="M168.8,180.4v27.9H85.9V180.4h82.9m1-1H84.9v29.9h84.9V179.4Z" fill="#fff"/><path d="M253.7,180.4v27.9H170.8V180.4h82.9m1-1H169.8v29.9h84.9V179.4Z" fill="#fff"/><path d="M338.6,180.4v27.9H255.7V180.4h82.9m1-1H254.7v29.9h84.9V179.4Z" fill="#fff"/><path d="M423.5,180.4v27.9H340.6V180.4h82.9m1-1H339.6v29.9h84.9V179.4Z" fill="#fff"/><path d="M508.4,180.4v27.9H425.5V180.4h82.9m1-1H424.5v29.9h84.9V179.4Z" fill="#fff"/><path d="M593.3,180.4v27.9H510.4V180.4h82.9m1-1H509.4v29.9h84.9V179.4Z" fill="#fff"/><path d="M678.2,180.4v27.9H595.3V180.4h82.9m1-1H594.3v29.9h84.9V179.4Z" fill="#fff"/><path d="M763.1,180.4v27.9H680.2V180.4h82.9m1-1H679.2v29.9h84.9V179.4Z" fill="#fff"/><path d="M848,180.4v27.9H765.1V180.4H848m1-1H764.1v29.9H849V179.4Z" fill="#fff"/><path d="M83.9,210.3v27.9H1V210.3H83.9m1-1H0v29.9H84.9V209.3Z" fill="#fff"/><path d="M168.8,210.3v27.9H85.9V210.3h82.9m1-1H84.9v29.9h84.9V209.3Z" fill="#fff"/><path d="M253.7,210.3v27.9H170.8V210.3h82.9m1-1H169.8v29.9h84.9V209.3Z" fill="#fff"/><path d="M338.6,210.3v27.9H255.7V210.3h82.9m1-1H254.7v29.9h84.9V209.3Z" fill="#fff"/><path d="M423.5,210.3v27.9H340.6V210.3h82.9m1-1H339.6v29.9h84.9V209.3Z" fill="#fff"/><path d="M508.4,210.3v27.9H425.5V210.3h82.9m1-1H424.5v29.9h84.9V209.3Z" fill="#fff"/><path d="M593.3,210.3v27.9H510.4V210.3h82.9m1-1H509.4v29.9h84.9V209.3Z" fill="#fff"/><path d="M678.2,210.3v27.9H595.3V210.3h82.9m1-1H594.3v29.9h84.9V209.3Z" fill="#fff"/><path d="M763.1,210.3v27.9H680.2V210.3h82.9m1-1H679.2v29.9h84.9V209.3Z" fill="#fff"/><path d="M848,210.3v27.9H765.1V210.3H848m1-1H764.1v29.9H849V209.3Z" fill="#fff"/><path d="M83.9,240.2v27.9H1V240.2H83.9m1-1H0v29.9H84.9V239.2Z" fill="#fff"/><path d="M168.8,240.2v27.9H85.9V240.2h82.9m1-1H84.9v29.9h84.9V239.2Z" fill="#fff"/><path d="M253.7,240.2v27.9H170.8V240.2h82.9m1-1H169.8v29.9h84.9V239.2Z" fill="#fff"/><path d="M338.6,240.2v27.9H255.7V240.2h82.9m1-1H254.7v29.9h84.9V239.2Z" fill="#fff"/><path d="M423.5,240.2v27.9H340.6V240.2h82.9m1-1H339.6v29.9h84.9V239.2Z" fill="#fff"/></svg>