<svg xmlns="http://www.w3.org/2000/svg" width="68" height="17" viewBox="0 0 68 17" class="footer__logo" alt="Unicef logo"><g fill="#FFF" fill-rule="evenodd"><path d="M58.637.456c-3.502 0-6.351 2.849-6.351 6.351s2.849 6.35 6.35 6.35c3.502 0 6.351-2.848 6.351-6.35S62.137.456 58.637.456zm4.953 2.806c-.324.22-.667.419-1.022.593a6.62 6.62 0 00-.758-1.187c.26-.16.51-.336.74-.53.393.33.742.708 1.04 1.124zm-2.672-2.106a6.1 6.1 0 011.424.816 5.729 5.729 0 01-.7.494 6.705 6.705 0 00-1.046-.966c.116-.107.225-.22.322-.344zm.493 1.442a5.96 5.96 0 01-1.07.447 9.359 9.359 0 00-.53-1.036c.205-.09.399-.202.58-.34.372.272.714.584 1.02.929zm-.751-1.539c-.087.103-.18.199-.282.287a6.378 6.378 0 00-1.064-.588c.462.05.914.149 1.346.301zm-.497.455a2.677 2.677 0 01-.487.272 10.058 10.058 0 00-.613-.853 6.38 6.38 0 011.1.58zM58.767.977c.234.282.454.583.655.898a2.602 2.602 0 01-.655.115V.977zm0 1.276c.273-.013.54-.061.799-.148.194.323.368.662.52 1.01a5.825 5.825 0 01-1.32.183V2.253zM58.502.989V1.99a2.602 2.602 0 01-.646-.115c.195-.304.413-.601.646-.886zm-.896.797a2.552 2.552 0 01-.488-.272 6.4 6.4 0 011.096-.579c-.217.27-.423.556-.608.851zm.366-1.032a6.54 6.54 0 00-1.072.591 2.933 2.933 0 01-.282-.287c.437-.154.89-.254 1.354-.304zm4.351 10.9c-.845-.463-.861-1.106-.816-1.342.044-.24.21-.135.315-.135.555 0 1.139-.165 1.859-.9.811-.828 1.066-2.668-.181-3.868-1.344-1.293-2.773-1.067-3.695.096-.189.238-.65.412-1.05.399-.59-.023-.217.443-.217.54 0 .097-.09.165-.143.15-.2-.057-.12.24-.12.33 0 .09-.082.135-.126.135-.249 0-.18.223-.173.285.007.06-.015.163-.098.209-.079.045-.172.24-.172.39 0 .27.247.457.66.765.412.308.464.6.472.81.008.209.027.548.12.772.112.27.097.765-.472.787-.697.028-1.934.584-2.039.622-.393.14-.913.19-1.318.088a6.136 6.136 0 01-.623-.505c-.081-.28.06-.58.202-.783.232.232.578.217.771.224.195.008 1.147-.14 1.282-.186.136-.045.195-.03.278 0 .363.132.861.171 1.064-.525.203-.697-.277-.502-.337-.472-.06.03-.143.022-.113-.037.09-.178-.044-.16-.12-.166-.194-.02-.449.188-.531.262-.083.076-.165.068-.196.053-.258-.129-1.028.057-1.267-.36.023-.112-.195-1.806-.306-2.099a.286.286 0 01.029-.276c.195-.294.735.021 1.027.014.35-.01.406-.155.503-.273.091-.115.16-.05.21-.083.063-.041.003-.124.025-.169.024-.044.05-.022.109-.074.06-.054-.009-.165.022-.21.087-.13.322-.026.181-.367-.077-.187.03-.39.135-.525.17-.219.825-1.141-.33-2.1-1.102-.913-2.22-.84-2.94-.06-.718.78-.359 1.92-.284 2.22.075.3-.141.571-.39.69-.197.092-.646.392-.985.687a6.06 6.06 0 013.816-5.513c.096.121.205.236.322.344-.255.185-.808.68-.808.68s.076.011.146.028c.049.012.152.043.152.043s.488-.414.716-.58c.178.136.373.249.579.34-.11.187-.388.71-.388.71s.064.037.121.075c.058.04.095.073.095.073s.303-.57.417-.762c.255.085.52.134.79.146v1.046c-.15-.004-.533-.02-.689-.035l-.097-.01.054.081c.042.06.074.12.102.175l.01.022.026.003c.113.009.463.021.593.024v1.904h.265v-.435c.387-.019.709-.046 1.099-.08l.016-.002.342-.302-.186.016a14.27 14.27 0 01-1.1.097l-.171.01V3.558a6.12 6.12 0 001.425-.2c.127.315.369 1.077.369 1.077l.248-.078s-.241-.756-.367-1.07a6.136 6.136 0 001.14-.486c.292.36.544.75.752 1.167-.187.087-.529.208-.528.208.273.03.481.095.481.095s.097-.041.158-.069l.072.165.342.152-.04-.095-.14-.333c.362-.18.719-.384 1.059-.612a6.087 6.087 0 01-1.415 8.177zM51.71 2.144l-.098.088c-.373.33-1.224 1.2-1.093 2.155l.013.067.043.19.118-.11c.521-.476.912-1.284 1.072-2.217l.045-.262-.1.09m-1.728 1.649l-.043.115c-.059.16-.166.495-.224.94-.08.63-.062 1.522.486 2.188l.06.079.064.08.081-.404c.09-.716-.029-2.215-.291-2.885l-.09-.227-.043.114m-.631 2.58l-.008.117c-.045.642-.012 2.226 1.27 3.066l.152.098-.007-.18c-.022-.6-.723-2.395-1.25-3.038l-.149-.182-.008.119m.221 2.833l.022.109c.187.91 1.05 2.384 2.383 2.811l.183.06-.066-.18c-.249-.68-1.533-2.267-2.359-2.79L49.55 9.1l.023.108m2.677-5.693l-.106.064c-.992.606-1.456 1.34-1.421 2.245l.009.207.144-.12c.537-.445 1.208-1.58 1.406-2.225l.072-.235-.104.064m-.584 1.983l-.075.07c-.255.243-1.077 1.117-1.005 2.199.01.167.049.345.112.531l.059.173.106-.149c.393-.553.914-2.012.885-2.69l-.008-.205-.074.07m.043 1.878l-.057.083c-.414.615-.625 1.247-.613 1.83.012.43.15.842.41 1.225l.086.13.073-.138c.18-.336.321-1.428.3-2.292a3.02 3.02 0 00-.09-.73l-.054-.19-.055.082m.481 2.007l-.027.088c-.124.399-.183.79-.173 1.161.025.84.395 1.496 1.106 1.951l.12.076.026-.162.01-.129c-.019-.682-.527-2.4-.926-2.926l-.11-.144-.026.085m-1.4 2.664l.052.086c.535.895 1.441 2.051 3.137 1.754l.142-.024-.08-.119c-.317-.471-2.376-1.632-3.103-1.751l-.2-.033.053.087zm2.51 2.274l-.267.072.256.105c1.078.441 2.43.572 3.214.308.294-.1.473-.262.692-.475 1.38.143 2.671 1.29 3.425 2.227l.04.046.059-.018a.874.874 0 00.27-.189l.053-.057-.048-.063c-.786-1.027-2.016-1.665-2.07-1.69-1.107-.54-3.062-.961-5.625-.266"></path><path d="M53.357 11.452l.015.09c.161 1.017.574 2.35 2.29 2.202l.11-.009-.028-.107c-.116-.462-1.688-1.804-2.237-2.181l-.165-.085.015.09m12.13-9.397l.045.262c.16.933.552 1.74 1.073 2.218l.119.108.041-.19.014-.066c.13-.955-.72-1.826-1.093-2.155l-.099-.088-.1-.089m1.787 1.625l-.09.227c-.264.67-.384 2.17-.293 2.885l.081.405.064-.081.061-.079c.547-.666.566-1.558.485-2.188a4.458 4.458 0 00-.223-.94l-.043-.115-.042-.114m.665 2.575l-.15.182c-.526.643-1.228 2.437-1.249 3.039l-.007.18.15-.099c1.284-.84 1.316-2.424 1.272-3.066l-.01-.117-.006-.119m-.19 2.845l-.187.118c-.825.522-2.11 2.108-2.358 2.789l-.067.18.183-.06c1.333-.427 2.196-1.901 2.383-2.811l.024-.109.022-.108M64.994 3.42l.068.237c.184.648.833 1.796 1.361 2.251l.144.123.011-.207c.054-.904-.397-1.647-1.377-2.272l-.104-.066-.103-.066m.563 2.007l-.008.205c-.027.678.492 2.137.886 2.69l.106.149.059-.173a2.05 2.05 0 00.111-.531c.072-1.082-.75-1.956-1.004-2.199l-.074-.07-.076-.071m-.022 1.866l-.056.19a2.97 2.97 0 00-.09.73c-.02.864.122 1.956.3 2.292l.074.137.088-.13a2.25 2.25 0 00.406-1.224c.014-.583-.197-1.215-.612-1.83l-.055-.083-.055-.082m-.455 2.004l-.11.144c-.397.525-.906 2.244-.925 2.926l.01.129.027.162.12-.076c.71-.455 1.082-1.112 1.106-1.95a3.548 3.548 0 00-.174-1.162l-.028-.088-.027-.085m1.48 2.662l-.199.033c-.727.119-2.786 1.28-3.103 1.751l-.08.119.142.024c1.697.297 2.602-.859 3.137-1.754l.051-.086.052-.087zm-8.185 2.627c-.054.025-1.285.663-2.07 1.69l-.048.063.054.057c.055.06.184.16.27.19l.057.017.04-.046c.753-.937 2.045-2.084 3.425-2.227.219.213.398.375.694.475.783.264 2.134.133 3.214-.308l.255-.105L64 14.32c-2.564-.695-4.518-.274-5.625.266m5.581-3.224l-.165.085c-.55.377-2.121 1.72-2.237 2.181l-.027.107.108.01c1.717.147 2.13-1.186 2.292-2.202l.015-.09.014-.091m-43.894-8.48h2.169V.904h-2.169v1.978zm.172 11.88h1.824V5.129h-1.824v9.635zM6.469 5.136h1.823v9.636H6.507V13.35H6.47c-.73 1.21-1.958 1.708-3.302 1.708C1.152 15.059 0 13.524 0 11.585V5.136h1.824v5.7c0 1.671.384 2.899 2.13 2.899.75 0 1.766-.384 2.15-1.381.344-.903.365-2.035.365-2.265V5.136m5.464 1.42h.039c.613-1.209 1.957-1.708 2.917-1.708.671 0 3.646.173 3.646 3.263v6.66h-1.822V8.708c0-1.594-.672-2.457-2.208-2.457 0 0-.999-.058-1.766.71-.268.268-.767.69-.767 2.572v5.24h-1.824V5.136h1.785v1.42m17.76 1.671c-.096-1.202-.667-2.04-1.964-2.04-1.734 0-2.402 1.504-2.402 3.756 0 2.25.668 3.758 2.402 3.758 1.2 0 1.944-.78 2.039-2.156h1.813c-.154 2.156-1.755 3.47-3.872 3.47-3.07 0-4.29-2.172-4.29-4.996 0-2.807 1.41-5.15 4.445-5.15 2.021 0 3.546 1.28 3.638 3.358h-1.809m4.611 2.058c-.133 1.679.553 3.416 2.402 3.416 1.411 0 2.116-.552 2.325-1.948h1.91c-.288 2.177-1.967 3.262-4.253 3.262-3.071 0-4.293-2.172-4.293-4.996 0-2.807 1.414-5.15 4.445-5.15 2.86.06 4.212 1.87 4.212 4.523v.893h-6.748zm4.843-1.256c.039-1.602-.687-2.842-2.441-2.842-1.509 0-2.402 1.274-2.402 2.842h4.843zm3.958 5.701V6.415h-1.647v-1.26h1.647V3.096C43.165 1 44.745.447 46.1.447c.438 0 .86.113 1.3.188v1.506c-.309-.016-.613-.058-.92-.058-1.026 0-1.618.27-1.562 1.317v1.754h2.212v1.261h-2.212v8.315h-1.812"></path></g></svg>